# xmcd
# 
# Track frame offsets:
#     150
#     18674
#     67759
#     101325
#     136631
#     169465
#     198383
#     226591
#     242670
#     265835
#     279000
#     298417
#     305752
# 
# Disc length: 4253
# 
# Revision: 0
# Processed by: cddbd v1.5.2PL0 Copyright (c) Steve Scherf et al.
# Submitted via: fre:ac v1.0.17
# 
DISCID=b0109b0d
DTITLE=Various Artist - Rainy Day Blues
DYEAR=0
DGENRE=Blues
TTITLE0=1 - 1
TTITLE1=2 - 2
TTITLE2=3 - 3
TTITLE3=4 - 4
TTITLE4=Roy Buchanan - Pete's Blue
TTITLE5=Roy Buchanan - Five String Blues
TTITLE6=Roy Buchanan - After Hours
TTITLE7=Roy Buchanan - Sweet Dreams
TTITLE8=Roy Buchanan - Wayfaring Pilgrim
TTITLE9=10 - 10
TTITLE10=11 - 11
TTITLE11=12 - 12
TTITLE12=Ry Cooder - Sunny's Tune
EXTD=remix
EXTT0=
EXTT1=
EXTT2=
EXTT3=
EXTT4=
EXTT5=
EXTT6=
EXTT7=
EXTT8=
EXTT9=
EXTT10=
EXTT11=
EXTT12=
PLAYORDER=
